<svg height="2622" width="720" xmlns="http://www.w3.org/2000/svg">
<rect height="2622" fill="#555" width="720"></rect>
<text fill="#7f7" font-family="Courier New" font-size="12" xml:space="preserve">
<tspan x="10" y="26">24 megabytes installed</tspan>
<tspan x="10" y="42"></tspan>
<tspan x="10" y="58">node_modules</tspan>
<tspan x="10" y="74">└─┬ gulp-arialinter@0.0.1 </tspan>
<tspan x="10" y="90">  ├─┬ arialinter@0.3.1 </tspan>
<tspan x="10" y="106">  │ ├─┬ async@2.3.0 </tspan>
<tspan x="10" y="122">  │ │ └── lodash@4.17.4 </tspan>
<tspan x="10" y="138">  │ ├─┬ color@1.0.3 </tspan>
<tspan x="10" y="154">  │ │ ├─┬ color-convert@1.9.0 </tspan>
<tspan x="10" y="170">  │ │ │ └── color-name@1.1.2 </tspan>
<tspan x="10" y="186">  │ │ └─┬ color-string@1.5.2 </tspan>
<tspan x="10" y="202">  │ │   └─┬ simple-swizzle@0.2.2 </tspan>
<tspan x="10" y="218">  │ │     └── is-arrayish@0.3.1 </tspan>
<tspan x="10" y="234">  │ ├── colors@1.1.2 </tspan>
<tspan x="10" y="250">  │ ├─┬ commander@2.9.0 </tspan>
<tspan x="10" y="266">  │ │ └── graceful-readlink@1.0.1 </tspan>
<tspan x="10" y="282">  │ ├─┬ jsdom@9.12.0 </tspan>
<tspan x="10" y="298">  │ │ ├── abab@1.0.3 </tspan>
<tspan x="10" y="314">  │ │ ├── acorn@4.0.11 </tspan>
<tspan x="10" y="330">  │ │ ├── acorn-globals@3.1.0 </tspan>
<tspan x="10" y="346">  │ │ ├── array-equal@1.0.0 </tspan>
<tspan x="10" y="362">  │ │ ├── content-type-parser@1.0.1 </tspan>
<tspan x="10" y="378">  │ │ ├── cssom@0.3.2 </tspan>
<tspan x="10" y="394">  │ │ ├── cssstyle@0.2.37 </tspan>
<tspan x="10" y="410">  │ │ ├─┬ escodegen@1.8.1 </tspan>
<tspan x="10" y="426">  │ │ │ ├── esprima@2.7.3 </tspan>
<tspan x="10" y="442">  │ │ │ ├── estraverse@1.9.3 </tspan>
<tspan x="10" y="458">  │ │ │ ├── esutils@2.0.2 </tspan>
<tspan x="10" y="474">  │ │ │ ├─┬ optionator@0.8.2 </tspan>
<tspan x="10" y="490">  │ │ │ │ ├── deep-is@0.1.3 </tspan>
<tspan x="10" y="506">  │ │ │ │ ├── fast-levenshtein@2.0.6 </tspan>
<tspan x="10" y="522">  │ │ │ │ ├── levn@0.3.0 </tspan>
<tspan x="10" y="538">  │ │ │ │ ├── prelude-ls@1.1.2 </tspan>
<tspan x="10" y="554">  │ │ │ │ ├── type-check@0.3.2 </tspan>
<tspan x="10" y="570">  │ │ │ │ └── wordwrap@1.0.0 </tspan>
<tspan x="10" y="586">  │ │ │ └─┬ source-map@0.2.0 </tspan>
<tspan x="10" y="602">  │ │ │   └── amdefine@1.0.1 </tspan>
<tspan x="10" y="618">  │ │ ├── html-encoding-sniffer@1.0.1 </tspan>
<tspan x="10" y="634">  │ │ ├── nwmatcher@1.3.9 </tspan>
<tspan x="10" y="650">  │ │ ├── parse5@1.5.1 </tspan>
<tspan x="10" y="666">  │ │ ├─┬ request@2.81.0 </tspan>
<tspan x="10" y="682">  │ │ │ ├── aws-sign2@0.6.0 </tspan>
<tspan x="10" y="698">  │ │ │ ├── aws4@1.6.0 </tspan>
<tspan x="10" y="714">  │ │ │ ├── caseless@0.12.0 </tspan>
<tspan x="10" y="730">  │ │ │ ├─┬ combined-stream@1.0.5 </tspan>
<tspan x="10" y="746">  │ │ │ │ └── delayed-stream@1.0.0 </tspan>
<tspan x="10" y="762">  │ │ │ ├── extend@3.0.0 </tspan>
<tspan x="10" y="778">  │ │ │ ├── forever-agent@0.6.1 </tspan>
<tspan x="10" y="794">  │ │ │ ├─┬ form-data@2.1.4 </tspan>
<tspan x="10" y="810">  │ │ │ │ └── asynckit@0.4.0 </tspan>
<tspan x="10" y="826">  │ │ │ ├─┬ har-validator@4.2.1 </tspan>
<tspan x="10" y="842">  │ │ │ │ ├─┬ ajv@4.11.7 </tspan>
<tspan x="10" y="858">  │ │ │ │ │ ├── co@4.6.0 </tspan>
<tspan x="10" y="874">  │ │ │ │ │ └─┬ json-stable-stringify@1.0.1 </tspan>
<tspan x="10" y="890">  │ │ │ │ │   └── jsonify@0.0.0 </tspan>
<tspan x="10" y="906">  │ │ │ │ └── har-schema@1.0.5 </tspan>
<tspan x="10" y="922">  │ │ │ ├─┬ hawk@3.1.3 </tspan>
<tspan x="10" y="938">  │ │ │ │ ├── boom@2.10.1 </tspan>
<tspan x="10" y="954">  │ │ │ │ ├── cryptiles@2.0.5 </tspan>
<tspan x="10" y="970">  │ │ │ │ ├── hoek@2.16.3 </tspan>
<tspan x="10" y="986">  │ │ │ │ └── sntp@1.0.9 </tspan>
<tspan x="10" y="1002">  │ │ │ ├─┬ http-signature@1.1.1 </tspan>
<tspan x="10" y="1018">  │ │ │ │ ├── assert-plus@0.2.0 </tspan>
<tspan x="10" y="1034">  │ │ │ │ ├─┬ jsprim@1.4.0 </tspan>
<tspan x="10" y="1050">  │ │ │ │ │ ├── assert-plus@1.0.0 </tspan>
<tspan x="10" y="1066">  │ │ │ │ │ ├── extsprintf@1.0.2 </tspan>
<tspan x="10" y="1082">  │ │ │ │ │ ├── json-schema@0.2.3 </tspan>
<tspan x="10" y="1098">  │ │ │ │ │ └── verror@1.3.6 </tspan>
<tspan x="10" y="1114">  │ │ │ │ └─┬ sshpk@1.13.0 </tspan>
<tspan x="10" y="1130">  │ │ │ │   ├── asn1@0.2.3 </tspan>
<tspan x="10" y="1146">  │ │ │ │   ├── assert-plus@1.0.0 </tspan>
<tspan x="10" y="1162">  │ │ │ │   ├── bcrypt-pbkdf@1.0.1 </tspan>
<tspan x="10" y="1178">  │ │ │ │   ├─┬ dashdash@1.14.1 </tspan>
<tspan x="10" y="1194">  │ │ │ │   │ └── assert-plus@1.0.0 </tspan>
<tspan x="10" y="1210">  │ │ │ │   ├── ecc-jsbn@0.1.1 </tspan>
<tspan x="10" y="1226">  │ │ │ │   ├─┬ getpass@0.1.6 </tspan>
<tspan x="10" y="1242">  │ │ │ │   │ └── assert-plus@1.0.0 </tspan>
<tspan x="10" y="1258">  │ │ │ │   ├── jodid25519@1.0.2 </tspan>
<tspan x="10" y="1274">  │ │ │ │   ├── jsbn@0.1.1 </tspan>
<tspan x="10" y="1290">  │ │ │ │   └── tweetnacl@0.14.5 </tspan>
<tspan x="10" y="1306">  │ │ │ ├── is-typedarray@1.0.0 </tspan>
<tspan x="10" y="1322">  │ │ │ ├── isstream@0.1.2 </tspan>
<tspan x="10" y="1338">  │ │ │ ├── json-stringify-safe@5.0.1 </tspan>
<tspan x="10" y="1354">  │ │ │ ├─┬ mime-types@2.1.15 </tspan>
<tspan x="10" y="1370">  │ │ │ │ └── mime-db@1.27.0 </tspan>
<tspan x="10" y="1386">  │ │ │ ├── oauth-sign@0.8.2 </tspan>
<tspan x="10" y="1402">  │ │ │ ├── performance-now@0.2.0 </tspan>
<tspan x="10" y="1418">  │ │ │ ├── qs@6.4.0 </tspan>
<tspan x="10" y="1434">  │ │ │ ├── safe-buffer@5.0.1 </tspan>
<tspan x="10" y="1450">  │ │ │ ├── stringstream@0.0.5 </tspan>
<tspan x="10" y="1466">  │ │ │ ├── tunnel-agent@0.6.0 </tspan>
<tspan x="10" y="1482">  │ │ │ └── uuid@3.0.1 </tspan>
<tspan x="10" y="1498">  │ │ ├── sax@1.2.2 </tspan>
<tspan x="10" y="1514">  │ │ ├── symbol-tree@3.2.2 </tspan>
<tspan x="10" y="1530">  │ │ ├─┬ tough-cookie@2.3.2 </tspan>
<tspan x="10" y="1546">  │ │ │ └── punycode@1.4.1 </tspan>
<tspan x="10" y="1562">  │ │ ├── webidl-conversions@4.0.1 </tspan>
<tspan x="10" y="1578">  │ │ ├─┬ whatwg-encoding@1.0.1 </tspan>
<tspan x="10" y="1594">  │ │ │ └── iconv-lite@0.4.13 </tspan>
<tspan x="10" y="1610">  │ │ ├─┬ whatwg-url@4.7.0 </tspan>
<tspan x="10" y="1626">  │ │ │ ├── tr46@0.0.3 </tspan>
<tspan x="10" y="1642">  │ │ │ └── webidl-conversions@3.0.1 </tspan>
<tspan x="10" y="1658">  │ │ └── xml-name-validator@2.0.1 </tspan>
<tspan x="10" y="1674">  │ └── lodash@2.4.1 </tspan>
<tspan x="10" y="1690">  ├─┬ gulp-util@3.0.8 </tspan>
<tspan x="10" y="1706">  │ ├── array-differ@1.0.0 </tspan>
<tspan x="10" y="1722">  │ ├── array-uniq@1.0.3 </tspan>
<tspan x="10" y="1738">  │ ├── beeper@1.1.1 </tspan>
<tspan x="10" y="1754">  │ ├─┬ chalk@1.1.3 </tspan>
<tspan x="10" y="1770">  │ │ ├── ansi-styles@2.2.1 </tspan>
<tspan x="10" y="1786">  │ │ ├── escape-string-regexp@1.0.5 </tspan>
<tspan x="10" y="1802">  │ │ ├─┬ has-ansi@2.0.0 </tspan>
<tspan x="10" y="1818">  │ │ │ └── ansi-regex@2.1.1 </tspan>
<tspan x="10" y="1834">  │ │ ├── strip-ansi@3.0.1 </tspan>
<tspan x="10" y="1850">  │ │ └── supports-color@2.0.0 </tspan>
<tspan x="10" y="1866">  │ ├── dateformat@2.0.0 </tspan>
<tspan x="10" y="1882">  │ ├─┬ fancy-log@1.3.0 </tspan>
<tspan x="10" y="1898">  │ │ └── time-stamp@1.0.1 </tspan>
<tspan x="10" y="1914">  │ ├─┬ gulplog@1.0.0 </tspan>
<tspan x="10" y="1930">  │ │ └── glogg@1.0.0 </tspan>
<tspan x="10" y="1946">  │ ├─┬ has-gulplog@0.1.0 </tspan>
<tspan x="10" y="1962">  │ │ └── sparkles@1.0.0 </tspan>
<tspan x="10" y="1978">  │ ├── lodash._reescape@3.0.0 </tspan>
<tspan x="10" y="1994">  │ ├── lodash._reevaluate@3.0.0 </tspan>
<tspan x="10" y="2010">  │ ├── lodash._reinterpolate@3.0.0 </tspan>
<tspan x="10" y="2026">  │ ├─┬ lodash.template@3.6.2 </tspan>
<tspan x="10" y="2042">  │ │ ├── lodash._basecopy@3.0.1 </tspan>
<tspan x="10" y="2058">  │ │ ├── lodash._basetostring@3.0.1 </tspan>
<tspan x="10" y="2074">  │ │ ├── lodash._basevalues@3.0.0 </tspan>
<tspan x="10" y="2090">  │ │ ├── lodash._isiterateecall@3.0.9 </tspan>
<tspan x="10" y="2106">  │ │ ├─┬ lodash.escape@3.2.0 </tspan>
<tspan x="10" y="2122">  │ │ │ └── lodash._root@3.0.1 </tspan>
<tspan x="10" y="2138">  │ │ ├─┬ lodash.keys@3.1.2 </tspan>
<tspan x="10" y="2154">  │ │ │ ├── lodash._getnative@3.9.1 </tspan>
<tspan x="10" y="2170">  │ │ │ ├── lodash.isarguments@3.1.0 </tspan>
<tspan x="10" y="2186">  │ │ │ └── lodash.isarray@3.0.4 </tspan>
<tspan x="10" y="2202">  │ │ ├── lodash.restparam@3.6.1 </tspan>
<tspan x="10" y="2218">  │ │ └── lodash.templatesettings@3.1.1 </tspan>
<tspan x="10" y="2234">  │ ├── minimist@1.2.0 </tspan>
<tspan x="10" y="2250">  │ ├─┬ multipipe@0.1.2 </tspan>
<tspan x="10" y="2266">  │ │ └─┬ duplexer2@0.0.2 </tspan>
<tspan x="10" y="2282">  │ │   └── readable-stream@1.1.14 </tspan>
<tspan x="10" y="2298">  │ ├── object-assign@3.0.0 </tspan>
<tspan x="10" y="2314">  │ ├── replace-ext@0.0.1 </tspan>
<tspan x="10" y="2330">  │ ├─┬ through2@2.0.3 </tspan>
<tspan x="10" y="2346">  │ │ └─┬ readable-stream@2.2.9 </tspan>
<tspan x="10" y="2362">  │ │   ├── buffer-shims@1.0.0 </tspan>
<tspan x="10" y="2378">  │ │   ├── isarray@1.0.0 </tspan>
<tspan x="10" y="2394">  │ │   ├── process-nextick-args@1.0.7 </tspan>
<tspan x="10" y="2410">  │ │   ├── string_decoder@1.0.0 </tspan>
<tspan x="10" y="2426">  │ │   └── util-deprecate@1.0.2 </tspan>
<tspan x="10" y="2442">  │ └─┬ vinyl@0.5.3 </tspan>
<tspan x="10" y="2458">  │   ├── clone@1.0.2 </tspan>
<tspan x="10" y="2474">  │   └── clone-stats@0.0.1 </tspan>
<tspan x="10" y="2490">  ├─┬ through2@0.6.5 </tspan>
<tspan x="10" y="2506">  │ ├─┬ readable-stream@1.0.34 </tspan>
<tspan x="10" y="2522">  │ │ ├── core-util-is@1.0.2 </tspan>
<tspan x="10" y="2538">  │ │ ├── inherits@2.0.3 </tspan>
<tspan x="10" y="2554">  │ │ ├── isarray@0.0.1 </tspan>
<tspan x="10" y="2570">  │ │ └── string_decoder@0.10.31 </tspan>
<tspan x="10" y="2586">  │ └── xtend@4.0.1 </tspan>
<tspan x="10" y="2602">  └── underscore@1.8.3</tspan>
</text>
</svg>
